<?xml version="1.0" encoding="utf-8"?>
<!-- Generator: Adobe Illustrator 20.0.0, SVG Export Plug-In . SVG Version: 6.00 Build 0)  -->
<svg version="1.1" id="Layer_1" xmlns="http://www.w3.org/2000/svg" xmlns:xlink="http://www.w3.org/1999/xlink" x="0px" y="0px"
	 width="240.9px" height="195.5px" viewBox="0 0 240.9 195.5" style="enable-background:new 0 0 240.9 195.5;" xml:space="preserve"
	>
<style type="text/css">
	.st0{fill:none;stroke:#295684;stroke-width:2;stroke-miterlimit:10;}
	.st1{fill:none;stroke:#295684;stroke-width:2;stroke-linecap:round;stroke-linejoin:round;stroke-miterlimit:10;}
</style>
<path class="st0" d="M240.2,7.8v145.9c0,3.9-3.2,7-7,7H120.4H7.8c-3.9,0-7-3.2-7-7V7.8v146V7.8c0-3.9,3.2-7,7-7h112.7h112.6
	C237,0.8,240.2,3.9,240.2,7.8v146"/>
<circle class="st0" cx="120.5" cy="155.1" r="2.8"/>
<line class="st0" x1="0.8" y1="147.4" x2="240.2" y2="147.4"/>
<polyline class="st1" points="142.7,161.4 161.5,194.8 114,194.8 127,194.8 79.4,194.8 98.5,160.8 "/>
<g>
	<g>
		<g>
			<path class="st0" d="M119.6,91.7"/>
			<polyline class="st0" points="119.6,71.5 154.3,36.8 164.4,46.9 129.7,81.6 			"/>
			<polyline class="st0" points="121.3,90 86.6,124.7 76.5,114.6 111.2,79.9 			"/>
			<line class="st0" x1="134" y1="77.3" x2="128.2" y2="71.4"/>
			<line class="st0" x1="116" y1="95.3" x2="113.1" y2="92.5"/>
			<line class="st0" x1="110" y1="101.3" x2="104.2" y2="95.4"/>
			<line class="st0" x1="104" y1="107.3" x2="101.1" y2="104.5"/>
			<line class="st0" x1="158.2" y1="53.1" x2="152.3" y2="47.3"/>
			<line class="st0" x1="152.1" y1="59.2" x2="149.2" y2="56.3"/>
			<line class="st0" x1="146.2" y1="65.2" x2="140.3" y2="59.3"/>
			<line class="st0" x1="140.1" y1="71.2" x2="137.2" y2="68.3"/>
			<line class="st0" x1="98" y1="113.3" x2="92.2" y2="107.4"/>
		</g>
		<line class="st0" x1="92" y1="119.3" x2="89.1" y2="116.5"/>
	</g>
	<g>
		<g>
			<polygon class="st0" points="90.5,59.1 82.2,42.3 98.9,50.8 162.5,114.4 154.2,122.8 			"/>
			<line class="st0" x1="91.5" y1="60.1" x2="99.8" y2="51.7"/>
			<line class="st0" x1="85.6" y1="49.3" x2="89" y2="45.9"/>
		</g>
		<line class="st0" x1="95.6" y1="55.9" x2="153" y2="113.3"/>
		<line class="st0" x1="148.9" y1="117.5" x2="157.2" y2="109.1"/>
	</g>
</g>
</svg>
