<?xml version="1.0" encoding="utf-8"?>
<!-- Generator: Adobe Illustrator 20.0.0, SVG Export Plug-In . SVG Version: 6.00 Build 0)  -->
<svg version="1.1" id="Layer_1" xmlns="http://www.w3.org/2000/svg" xmlns:xlink="http://www.w3.org/1999/xlink" x="0px" y="0px"
	 width="209px" height="209px" viewBox="0 0 209 209" style="enable-background:new 0 0 209 209;" xml:space="preserve">
<style type="text/css">
	.st0{fill:#FFFFFF;}
	.st1{fill:none;stroke:#FFFFFF;stroke-width:9;stroke-miterlimit:10;}
</style>
<g>
	<path class="st0" d="M145.5,113.4v30.3h-17.6v-28.3c0-7.1-2.5-12-8.9-12c-4.9,0-7.7,3.3-9,6.4c-0.5,1.1-0.6,2.7-0.6,4.3v29.5H91.8
		c0,0,0.2-47.9,0-52.9h17.6v7.5c0,0.1-0.1,0.1-0.1,0.2h0.1v-0.2c2.3-3.6,6.5-8.7,15.8-8.7C136.8,89.6,145.5,97.1,145.5,113.4
		L145.5,113.4z M73.4,65.3c-6,0-9.9,3.9-9.9,9.1c0,5.1,3.8,9.1,9.7,9.1h0.1c6.1,0,10-4.1,10-9.1C83.2,69.3,79.5,65.3,73.4,65.3
		L73.4,65.3z M64.5,143.7h17.6V90.8H64.5V143.7z"/>
</g>
<circle class="st1" cx="104.5" cy="104.5" r="100"/>
</svg>
