<?xml version="1.0" encoding="utf-8"?>
<!-- Generator: Adobe Illustrator 20.0.0, SVG Export Plug-In . SVG Version: 6.00 Build 0)  -->
<svg version="1.1" id="Layer_1" xmlns="http://www.w3.org/2000/svg" xmlns:xlink="http://www.w3.org/1999/xlink" x="0px" y="0px"
	 width="240.4px" height="154px" viewBox="0 0 240.4 154" style="enable-background:new 0 0 240.4 154;" xml:space="preserve">
<style type="text/css">
	.st0{fill:none;stroke:#295684;stroke-width:1.25;stroke-miterlimit:10;}
	.st1{fill:#295684;}
</style>
<path class="st0" d="M239.9,153.5V7.5c0-3.9-3.2-7-7-7H120.3H7.5c-3.9,0-7,3.2-7,7v145.9H239.9z"/>
<circle class="st0" cx="7.5" cy="6.4" r="2.8"/>
<circle class="st0" cx="16.5" cy="6.4" r="2.8"/>
<circle class="st0" cx="25.4" cy="6.4" r="2.8"/>
<line class="st0" x1="0.5" y1="12.4" x2="239.9" y2="12.4"/>
<line class="st0" x1="177.7" y1="144.4" x2="227.9" y2="144.4"/>
<line class="st0" x1="45.9" y1="144.4" x2="171.4" y2="144.4"/>
<circle class="st0" cx="174.5" cy="144.4" r="3.1"/>
<path class="st0" d="M192.2,27.7c-2.5,3.3-4,7.5-4,12c0,11,8.9,19.9,19.9,19.9s19.9-8.9,19.9-19.9S219,19.8,208,19.8"/>
<g>
	<path class="st1" d="M202,39.5c-1.5-0.4-2.9-1.3-2.9-3c0-2.2,2-3.2,4-3.2c1.9,0,4,1,4,3.2c0,1.6-1.4,2.6-2.9,3c1.6,0.4,3,1.5,3,3.3
		c0,2-1.8,3.3-4.2,3.3c-2.4,0-4.2-1.3-4.2-3.3C199,41,200.5,39.9,202,39.5z M203.2,39.9c-0.8,0.1-3.1,0.8-3.1,2.7
		c0,1.5,1.5,2.4,3.1,2.4c1.6,0,3.1-0.9,3.1-2.4C206.3,40.8,203.9,40,203.2,39.9z M203.2,34.3c-1.6,0-2.9,0.8-2.9,2.3
		c0,1.7,2.2,2.3,2.9,2.4c0.8-0.1,2.9-0.7,2.9-2.4C206.1,35.1,204.8,34.3,203.2,34.3z"/>
	<path class="st1" d="M215.8,34.5H209v-1h8v0.7l-5.2,11.5h-1.2L215.8,34.5z"/>
</g>
<line class="st0" x1="37.1" y1="12.4" x2="37.1" y2="153.5"/>
<g>
	<circle class="st0" cx="18.8" cy="32.7" r="8.9"/>
	<circle class="st0" cx="19" cy="30" r="1.9"/>
	<path class="st0" d="M23.5,36.8v-2c0-0.7-0.6-1.3-1.3-1.3h-6.6c-0.7,0-1.3,0.6-1.3,1.3v2"/>
</g>
<line class="st0" x1="11.3" y1="45.8" x2="25.6" y2="45.8"/>
<line class="st0" x1="7.5" y1="49.8" x2="29.3" y2="49.8"/>
<line class="st0" x1="7.5" y1="53.8" x2="29.3" y2="53.8"/>
<line class="st0" x1="7.5" y1="61.8" x2="29.3" y2="61.8"/>
<line class="st0" x1="7.5" y1="57.8" x2="29.3" y2="57.8"/>
<rect x="46" y="65.1" class="st0" width="182" height="71.3"/>
<rect x="217.5" y="65.1" class="st0" width="10.4" height="10.4"/>
<g>
	<line class="st0" x1="220.6" y1="68.3" x2="224.8" y2="72.4"/>
	<line class="st0" x1="224.8" y1="68.3" x2="220.6" y2="72.4"/>
</g>
</svg>
